<?xml version="1.0" encoding="utf-8"?>
<!-- Generator: Adobe Illustrator 16.0.0, SVG Export Plug-In . SVG Version: 6.00 Build 0)  -->
<!DOCTYPE svg PUBLIC "-//W3C//DTD SVG 1.1//EN" "http://www.w3.org/Graphics/SVG/1.1/DTD/svg11.dtd">
<svg version="1.1" id="Layer_1" xmlns="http://www.w3.org/2000/svg" xmlns:xlink="http://www.w3.org/1999/xlink" x="0px" y="0px"
	 width="100px" height="34.742px" viewBox="0 0 100 34.742" enable-background="new 0 0 100 34.742" xml:space="preserve">
<path fill="#FFFFFF" d="M16.242-99.12c0.118,0.028,0.239,0.04,0.352,0.04c0.727,0,1.383-0.501,1.552-1.243
	c0.984-4.375,3.027-11.435,4.114-12.989c1.945-2.803,5.371-2.753,5.549-2.749l4.85-0.014c0.038-0.001,4.475-0.45,6.424,2.84
	c0.038,0.063,0.08,0.125,0.123,0.179c1.176,1.488,3.378,8.653,4.311,12.743c0.202,0.854,1.055,1.385,1.908,1.193
	c0.853-0.197,1.387-1.051,1.194-1.907c-0.497-2.151-2.886-11.287-4.85-13.914c-2.999-4.936-9.189-4.32-9.283-4.3h-0.764
	c5.535-0.733,9.832-5.428,9.832-11.158c0-6.235-5.07-11.299-11.308-11.299c-6.228,0-11.294,5.064-11.294,11.299
	c0,5.73,4.293,10.425,9.823,11.158h-0.91c-0.205-0.004-5.258-0.145-8.214,4.11c-1.749,2.509-4.077,11.771-4.606,14.109
	C14.85-100.164,15.385-99.312,16.242-99.12z M22.128-130.399c0-4.478,3.641-8.119,8.117-8.119c4.484,0,8.131,3.642,8.131,8.119
	c0,4.48-3.646,8.129-8.131,8.129C25.769-122.271,22.128-125.919,22.128-130.399z M93.407-153.155H6.589
	c-0.88,0-1.589,0.713-1.589,1.592v62.353c0,0.877,0.708,1.59,1.589,1.59h86.818c0.88,0,1.593-0.713,1.593-1.59v-62.353
	C95-152.442,94.287-153.155,93.407-153.155z M91.817-90.801H8.177v-59.174h83.64V-90.801z M53.854-131.318
	c0-0.878,0.712-1.588,1.593-1.588H82.3c0.882,0,1.593,0.71,1.593,1.588c0,0.879-0.711,1.592-1.593,1.592H55.447
	C54.566-129.726,53.854-130.438,53.854-131.318z M53.854-120.397c0-0.879,0.712-1.59,1.593-1.59H82.3
	c0.882,0,1.593,0.711,1.593,1.59c0,0.876-0.711,1.59-1.593,1.59H55.447C54.566-118.807,53.854-119.521,53.854-120.397z
	 M53.854-109.472c0-0.878,0.712-1.589,1.593-1.589H82.3c0.882,0,1.593,0.711,1.593,1.589c0,0.879-0.711,1.59-1.593,1.59H55.447
	C54.566-107.882,53.854-108.593,53.854-109.472z"/>
<g>
	<path fill="#FFFFFF" d="M93.988-234.707l-5.407-9.05c-0.718-1.196-1.733-1.501-3.128-1.501H16.596
		c-1.405,0-2.706,0.316-3.419,1.526l-6.712,11.158c-0.359,0.608-0.549,1.193-0.551,1.899l-0.237,71.016
		c-0.003,1.055,0.413,2.277,1.158,3.024c0.745,0.748,1.757,1.377,2.812,1.377H91.14c2.192,0,2.86-2.249,2.86-4.441v-72.964
		C94-233.383,94.359-234.089,93.988-234.707z M16.596-241.258h68.682h0.175L90-232.664v1.406H10.636L16.596-241.258z M9.647-159.258
		l0.23-69H90v69H9.647z"/>
	<path fill="#FFFFFF" d="M78.991-219.258H23.404c-0.548,0-2.404-0.409-2.404,0.14v6.86h-1.898c-0.365,0-1.102,0-1.102,0v13.323
		c0,0.366,0.737,1.677,1.102,1.677H21v8h-1.898c-0.365,0-1.102-1-1.102,0v12.823c0,0.366,0.737,1.177,1.102,1.177H21v6.434
		c0,0.548,1.855,1.566,2.404,1.566h55.587c0.549,0,0.009-1.019,0.009-1.566v-50.294C79-219.667,79.54-219.258,78.991-219.258z
		 M19-211.258h5v12h-5V-211.258z M19-188.258h5v12h-5V-188.258z M77-169.258H23v-6h2c1,0,0-0.811,0-1.177v-12.823c0-1,0,0,0,0h-2v-8
		h2c1,0,0-1.311,0-1.677v-13.323l0,0h-2v-5h54V-169.258z"/>
	<path fill="#FFFFFF" d="M40.814-177.583c1.329-1.135,1.663-2.985,0.952-4.494l1.353-1.154c2.542,2.692,6.131,4.384,10.117,4.384
		c3.835,0,7.312-1.558,9.833-4.073l0.834,0.693c-0.69,1.518-0.33,3.362,1.014,4.479c1.61,1.338,3.999,1.118,5.337-0.492
		c1.339-1.609,1.117-4-0.492-5.338c-1.344-1.117-3.225-1.133-4.59-0.176l-0.812-0.674c1.752-2.329,2.547-5.214,2.547-8.346
		c0-7.587-5.906-13.764-13.906-13.914v-1.323c2-0.349,3.295-1.879,3.295-3.715c0-2.093-1.568-3.79-3.662-3.79
		c-2.093,0-3.989,1.697-3.989,3.79c0,1.661,0.356,3.069,2.356,3.581v1.559c-7,0.846-11.956,6.711-11.956,13.813
		c0,2.98,1.082,5.739,2.683,8.007l-1.316,1.182c-1.378-0.938-3.225-0.896-4.553,0.238c-1.592,1.36-1.763,3.752-0.404,5.344
		C36.813-176.412,39.224-176.224,40.814-177.583z M53.235-180.171c-3.583,0-6.814-1.511-9.111-3.92l4.544-3.882
		c1.19,1.132,2.795,1.831,4.567,1.831c1.582,0,3.034-0.556,4.174-1.48l4.633,3.849C59.768-181.549,56.661-180.171,53.235-180.171z
		 M65.584-192.774c0,2.811-0.809,5.401-2.37,7.5l-4.527-3.814c0.705-1.055,0.894-2.321,0.894-3.686c0-3.57-2.58-6.473-6.58-6.619
		v-5.972C60-205.215,65.584-199.632,65.584-192.774z M40.368-192.774c0-6.37,4.632-11.638,10.632-12.476v6.072
		c-3,0.754-4.661,3.331-4.661,6.403c0,1.175,0.44,2.276,0.977,3.233l-4.647,3.914C41.262-187.66,40.368-190.121,40.368-192.774z"/>
</g>
<g>
	<path fill="#FFFFFF" d="M294,17.742h12v3h1v-3h12v3h1V4.214c0-0.971-0.141-1.472-1.116-1.472h-28.435c0.195,0,0.355,1,0.487,1H293
		v6h-1.79c-0.078,0-0.181,1-0.317,1H293v6h-5.146c-0.498,1-1.044,1-1.624,1H293v6h-11v-3.599c-1,0.161-1,0.287-2,0.385v3.214h-5v-3
		h-1v22.1c0,0.595,0,1.122,0,1.444v0.456h0.847c0.122,0,0.244,0,0.376,0H296v-2h-2v-5h2v-1h-2v-5h2v-1h-2v-6h2v-1h-2V17.742z
		 M307,3.742h11.884c0.141,0,0.116,0.335,0.116,0.472v5.528h-12V3.742z M307,10.742h12v6h-12V10.742z M294,3.742h12v6h-12V3.742z
		 M294,10.742h12v6h-12V10.742z M280,42.742h-4.909c-0.073,0-0.091,0.188-0.091,0.1v-5.1h5V42.742z M280,36.742h-5v-5h5V36.742z
		 M280,30.742h-5v-6h5V30.742z M293,42.742h-11v-5h11V42.742z M293,36.742h-11v-5h11V36.742z M293,30.742h-11v-6h11V30.742z"/>
	<path fill="#FFFFFF" d="M303.115,31.272c0.199,0,0.391-0.038,0.57-0.106l2.644,4.136c-0.365,0.347-0.6,0.839-0.6,1.381
		c0,1.048,0.854,1.901,1.902,1.901c1.054,0,1.901-0.854,1.901-1.901c0-0.293-0.068-0.566-0.186-0.811l3.469-2.536
		c0.268,0.229,0.614,0.376,0.999,0.376c0.42,0,0.806-0.171,1.083-0.449l3.546,2.22c-0.181,0.316-0.283,0.683-0.283,1.072
		c0,1.195,0.966,2.166,2.161,2.166c1.194,0,2.165-0.971,2.165-2.166c0-1.194-0.971-2.16-2.165-2.16c-0.541,0-1.039,0.2-1.42,0.536
		l-3.628-2.272c0.048-0.156,0.083-0.321,0.083-0.493c0-0.854-0.693-1.546-1.542-1.546c-0.854,0-1.546,0.692-1.546,1.546
		c0,0.215,0.044,0.415,0.122,0.601l-3.463,2.531c-0.341-0.317-0.795-0.517-1.297-0.517c-0.249,0-0.483,0.054-0.703,0.137
		l-2.639-4.132c0.303-0.297,0.488-0.717,0.488-1.175c0-0.922-0.741-1.663-1.663-1.663c-0.917,0-1.663,0.741-1.663,1.663
		C301.452,30.527,302.198,31.272,303.115,31.272z"/>
	<path fill="#FFFFFF" d="M299,22.742v24h26v-24H299z M324,36.555v9.188h-0.146H300V29.61v-5.868h24V36.555z"/>
	<path fill="#FFFFFF" d="M255,14.742h-8.109c-4.02,0-7.287-3.353-7.287-7.371s3.268-7.329,7.287-7.329
		c0.204,0,0.404-0.001,0.6,0.012c0.063,0.005,0.127-0.005,0.19-0.005c0.673,0,1.297-0.288,1.736-0.761
		c0.088-0.093,0.171-0.197,0.243-0.31c0.068-0.107,0.132-0.226,0.186-0.348s0.098-0.25,0.132-0.381
		c0.98-3.901,4.473-6.628,8.496-6.628c2.297,0,4.468,0.887,6.121,2.497c0.166,0.161,0.356,0.272,0.556,0.38
		c0.337,0.176,0.712,0.244,1.098,0.244h0.005c0.161,0,0.316,0.005,0.478-0.023c0.493-0.103,0.995-0.144,1.493-0.144
		c2.813,0,5.326,1.585,6.555,4.131c0.127,0.254,0.293,0.486,0.487,0.677c0.122,0.112,0.254,0.216,0.391,0.303
		c0.137,0.089,0.288,0.162,0.439,0.221c0.258,0.093,0.526,0.142,0.81,0.142c0.083,0,0.16,0,0.243-0.01
		C277.393,0.014,277.642,0,277.88,0c2.161,0,4.107,0.946,5.443,2.453c0.405,0.454,0.756,0.961,1.034,1.507
		c0.512,0.995,0.805,2.127,0.805,3.327c0,0.697-0.098,1.37-0.283,2.009c-0.15,0.532-0.361,1.039-0.624,1.512
		c-0.561,1.015-1.36,1.883-2.316,2.521c-0.469,0.317-0.976,0.665-1.513,0.865c-0.795,0.303-1.653,0.548-2.546,0.548h-2.911h-1.512
		H269v5h4.457h1.512h2.907c0.877,0,1.73-0.31,2.55-0.489c0.518-0.112,1.024-0.366,1.513-0.542c0.575-0.205,1.126-0.509,1.653-0.797
		c0.785-0.424,1.512-0.958,2.175-1.538c1.673-1.459,2.941-3.384,3.604-5.554c0.151-0.488,0.273-1.002,0.356-1.519
		c0.111-0.653,0.17-1.331,0.17-2.013c0-1.151-0.161-2.269-0.468-3.329c-0.151-0.517-0.332-1.02-0.547-1.507
		c-1.735-3.936-5.521-6.775-10.003-7.146c-0.39-0.034-0.746-0.234-0.98-0.547c-2.243-3.038-5.843-4.911-9.676-4.911
		c-0.244,0-0.488,0.005-0.731,0.024c-0.176,0.01-0.352-0.015-0.513-0.068c-0.142-0.044-0.269-0.117-0.391-0.205
		c-2.33-1.766-5.154-2.717-8.115-2.717c-5.302,0-10.008,3.073-12.203,7.726c-0.194,0.42-0.585,0.708-1.044,0.771
		c-5.842,0.811-10.359,6.061-10.359,12.122c0,6.629,5.395,12.239,12.023,12.239H255V14.742z"/>
	<path fill="#FFFFFF" d="M269.33,22.742H267v-1.97V7.94c0-1.112-0.776-2.198-1.884-2.198h-5.467c-1.103,0-2.649,1.086-2.649,2.198
		V19.31v3.433h-1.565c-0.507,0-0.965,0.249-1.18,0.707c-0.215,0.459-0.137,0.98,0.19,1.365l5.916,6.948
		c0.507,0.591,1.243,0.926,2.023,0.926c0.776,0,1.518-0.344,2.024-0.934l5.911-6.963c0.332-0.385,0.405-0.883,0.19-1.342
		C270.301,22.992,269.838,22.742,269.33,22.742z"/>
</g>
<g>
	<g>
		<g>
			<path fill="#FFFFFF" d="M93.723-43.453L93.723-43.453L93.723-43.453c0,0-0.17-0.025-0.285-0.025c-0.659,0-1.31,0.389-1.31,1.374
				c-0.392,4.946-0.796,9.909-1.464,14.627l-0.004,0.004c0.004,0,0.004,0,0.004,0l0,0h0.004c0.404-0.07,0.715,0.034,1.021,0.157
				l-0.005-0.002c0.762-4.794,2.562-11.976,3.021-14.008c0.067-0.287,0.166-0.625,0.166-0.863
				C94.872-42.917,94.412-43.338,93.723-43.453z"/>
			<path fill="#FFFFFF" d="M46.103-41.5c0.134,2.555,0.204,5.112,0.212,7.671c-3.063,0.072-6.126,0.077-9.185,0h-0.002
				c0.01-2.559,0.081-5.116,0.215-7.671c-0.898,0.217-1.812,0.221-2.74,0c0.238,5.488,0.217,10.966,0,16.434
				c0.889-0.213,1.8-0.222,2.736,0h-0.004h0.009c-0.136-2.548-0.207-5.096-0.215-7.642h0.002c3.063-0.042,6.124-0.045,9.188-0.002
				c-0.011,2.544-0.081,5.095-0.215,7.645h0.008h-0.004c0.936-0.222,1.846-0.213,2.735,0c-0.217-5.468-0.238-10.946,0-16.434
				C47.913-41.279,47-41.283,46.103-41.5z"/>
			<path fill="#FFFFFF" d="M26.562-41.506l-0.002,0.002L26.562-41.506c-0.681,0.238-1.238,0.224-1.906,0.002l-0.004-0.004
				c-2.206,5.537-4.748,11.785-7.032,16.442l0,0v0.004l0.008-0.004c-0.004,0-0.004,0-0.008,0l0.017-0.004l-0.008,0.004
				c1.046-0.26,2.042-0.179,2.702,0c0,0-0.002-0.004-0.004-0.004h0.004c0.583-1.473,1.247-3.14,1.91-4.817l0.004,0.002
				c2.246-0.064,4.49-0.072,6.737,0l0,0c0.64,1.606,1.281,3.215,1.904,4.823l0,0c1.002-0.264,1.998-0.191,2.733-0.004h-0.002
				C31.968-28.143,28.664-36.19,26.562-41.506z M25.605-38.671c0.908,2.532,1.908,5.082,2.923,7.641l-0.006-0.004
				c-1.942,0.068-3.886,0.07-5.829,0l-0.002,0.002C23.882-34.048,25.009-36.956,25.605-38.671z"/>
			<path fill="#FFFFFF" d="M21.587-43.691c-0.002,0-0.002,0-0.002,0l0,0c-0.987,0.223-1.876,0.229-2.761,0
				c-0.778,1.451-3.65,6.144-5.478,9.147c-1.855-3.069-4.048-6.613-5.479-9.147c-1.134,0.243-1.608,0.257-2.738,0
				c2.244,3.382,5.841,9.828,7.066,11.942l-0.164,8.818c0,0,0.789-0.128,1.317-0.128c0.585,0,1.312,0.128,1.312,0.128l-0.164-8.818
				C16.779-35.756,20.551-42.293,21.587-43.691z"/>
			<path fill="#FFFFFF" d="M58.492-41.721c-5.812,0-8.858,3.685-8.858,8.46c0,5.227,3.327,8.416,8.849,8.416
				c5.974,0,8.888-3.594,8.888-8.361C67.371-38.522,63.887-41.721,58.492-41.721z M58.509-25.777c-3.871,0-6.147-2.774-6.147-7.457
				c0-5.297,2.804-7.426,5.99-7.492c0.051-0.002,0.102,0,0.148,0c3.557,0,6.165,2.421,6.165,7.477
				C64.665-28.196,62.062-25.777,58.509-25.777z"/>
			<path fill="#FFFFFF" d="M78.556-42.712c-5.79,0-10.211,3.287-10.211,9.398c0,5.033,2.94,9.465,10.258,9.465
				c6.194,0,10.24-3.408,10.24-9.378C88.843-38.858,85.069-42.712,78.556-42.712z M71.081-33.353c0-6.433,3.956-8.336,7.479-8.336
				c4.348,0,7.547,2.64,7.547,8.462c0,6.327-3.871,8.382-7.539,8.382C74.65-24.845,71.081-27.146,71.081-33.353z"/>
			<path fill="#FFFFFF" d="M90.579-25.487c-0.859,0-1.289,0.654-1.289,1.361c0,0.834,0.663,1.264,1.489,1.264
				c0.591,0,1.242-0.362,1.242-1.345C92.021-24.994,91.404-25.487,90.579-25.487z"/>
		</g>
	</g>
	<g>
		<path fill="#FFFFFF" d="M42.474-15.268h-0.777l-3.099-4.378v4.34h-0.451v-5.353h1.311l2.565,3.634v-3.634h0.451V-15.268z"/>
		<path fill="#FFFFFF" d="M47.922-20.659v0.375h-2.221v2.042h1.97v0.361h-1.97v2.199h2.334v0.375h-3.636v-5.353H47.922z"/>
		<path fill="#FFFFFF" d="M54.15-15.264l-1.385-3.79l-1.374,3.79h-0.643l-1.953-5.395h1.372l1.366,3.838l1.387-3.889h0.576
			l1.412,3.982l1.264-3.932h0.688l-2.063,5.395H54.15z"/>
		<path fill="#FFFFFF" d="M57.633-16.884h1.235c0.009,0.421,0.049,0.714,0.121,0.88c0.141,0.319,0.409,0.477,0.8,0.477
			c0.294,0,0.521-0.089,0.684-0.264c0.132-0.145,0.195-0.34,0.195-0.591c0-0.265-0.085-0.473-0.255-0.635
			c-0.111-0.102-0.236-0.187-0.377-0.246c-0.102-0.043-0.24-0.098-0.419-0.166l-0.513-0.2c-0.294-0.114-0.506-0.213-0.636-0.298
			c-0.485-0.311-0.726-0.731-0.726-1.264c0-0.392,0.128-0.728,0.383-1.004c0.366-0.392,0.923-0.591,1.668-0.591
			c0.693,0,1.212,0.187,1.557,0.557c0.253,0.272,0.379,0.617,0.377,1.034h-1.2c-0.019-0.417-0.074-0.715-0.166-0.897
			c-0.051-0.103-0.14-0.184-0.266-0.251c-0.125-0.064-0.26-0.099-0.404-0.099c-0.251,0-0.446,0.081-0.587,0.234
			c-0.128,0.141-0.189,0.328-0.189,0.565c0,0.226,0.072,0.409,0.22,0.554c0.132,0.119,0.378,0.251,0.742,0.396l0.479,0.188
			c0.368,0.145,0.627,0.264,0.776,0.357c0.48,0.306,0.721,0.735,0.721,1.289c0,0.493-0.17,0.901-0.513,1.217
			c-0.157,0.145-0.376,0.255-0.659,0.34c-0.283,0.081-0.598,0.123-0.946,0.123c-0.549,0-0.983-0.089-1.307-0.271
			c-0.242-0.137-0.434-0.328-0.576-0.57c-0.146-0.251-0.219-0.523-0.219-0.812C57.633-16.846,57.633-16.864,57.633-16.884z"/>
	</g>
</g>
<g>
	<path fill-rule="evenodd" clip-rule="evenodd" fill="#FFFFFF" d="M71.948,24.231c-0.669,0.301-1.254,0.641-1.88,0.836
		c-2.146,0.664-5.389-0.221-5.919-3.396c-0.413-2.469-0.489-4.947,0.104-7.384c0.479-1.976,1.966-2.989,3.985-3.131
		c1.523-0.107,1.528-0.051,3.664,0.997c0-0.869,0-1.668,0-2.467c0.003-0.899,0.012-1.798,0-2.7c-0.007-0.503,0.18-0.759,0.72-0.743
		c0.709,0.023,1.417,0.019,2.125-0.002c0.486-0.014,0.703,0.198,0.696,0.678c-0.009,0.68-0.009,1.363-0.009,2.045
		c0,5.043-0.02,10.086,0.016,15.129c0.005,0.809-0.254,1.081-1.027,1.002c-0.459-0.047-0.929-0.037-1.391-0.003
		C72.393,25.146,71.895,25.056,71.948,24.231z M67.394,18.182c0.054,0.007,0.107,0.014,0.161,0.019c0,0.599-0.052,1.202,0.012,1.794
		c0.119,1.1,0.797,1.866,1.638,1.954c1.332,0.143,2.129-0.242,2.408-1.377c0.422-1.705,0.496-3.445-0.153-5.129
		c-0.352-0.913-1.146-1.032-2.02-1.006c-0.804,0.023-1.396,0.366-1.594,1.123C67.622,16.414,67.538,17.306,67.394,18.182z"/>
	<path fill-rule="evenodd" clip-rule="evenodd" fill="#FFFFFF" d="M87.401,20.914c0.629,0.602,1.232,1.179,1.833,1.757
		c0.413,0.394,0.052,0.633-0.197,0.859c-1.747,1.57-3.82,1.998-6.078,1.638c-3.545-0.566-4.715-2.917-4.989-5.649
		c-0.242-2.395-0.028-4.714,1.661-6.608c1.453-1.628,3.394-2.05,5.437-1.696c2.192,0.375,3.792,1.663,4.397,3.86
		c0.306,1.111,0.304,2.306,0.427,3.464c0.067,0.622-0.205,0.854-0.851,0.846c-2.21-0.032-4.419-0.014-6.627-0.014
		c-0.296,0-0.589,0-0.925,0c-0.023,1.108,0.358,1.924,1.237,2.401C84.447,22.705,85.962,22.13,87.401,20.914z M86.267,16.691
		c0.077-1.381-0.89-2.481-2.187-2.539c-1.503-0.067-2.523,0.918-2.569,2.539C83.097,16.691,84.683,16.691,86.267,16.691z"/>
	<path fill-rule="evenodd" clip-rule="evenodd" fill="#FFFFFF" d="M49.818,18.177c-0.037-1.761,0.049-3.492,1.197-4.971
		c1.29-1.663,3.99-2.483,6.035-1.94c3.178,0.843,4.235,3.031,4.343,5.304c0.058,1.304,0.062,2.625-0.089,3.916
		c-0.436,3.683-3.839,5.246-6.874,4.671c-3.03-0.575-4.521-2.758-4.61-5.67C49.809,19.051,49.818,18.615,49.818,18.177z
		 M53.324,18.145c0.096,0.82,0.1,1.626,0.298,2.378c0.287,1.079,1.014,1.481,2.248,1.433c0.906-0.037,1.693-0.601,1.771-1.593
		c0.116-1.478,0.098-2.977-0.019-4.457c-0.072-0.899-0.869-1.421-1.794-1.465c-1.144-0.051-1.929,0.358-2.173,1.309
		C53.45,16.53,53.424,17.357,53.324,18.145z"/>
	<path fill-rule="evenodd" clip-rule="evenodd" fill="#FFFFFF" d="M23.438,19.316c-0.021,1.155,0.368,1.989,1.242,2.464
		c1.598,0.869,3.098,0.464,4.645-0.5c-0.407,1.192-0.803,2.388-1.244,3.563c-0.054,0.145-0.354,0.277-0.538,0.272
		c-1.114-0.021-2.25,0.054-3.329-0.158c-1.878-0.368-3.168-1.567-3.769-3.39c-0.788-2.385-0.813-4.787,0.207-7.111
		c0.906-2.066,2.572-3.138,4.806-3.273c2.327-0.14,4.221,0.667,5.486,2.711c0.394,0.636,0.552,1.258,0.238,2.003
		c-0.371,0.878-0.659,1.793-0.927,2.709c-0.156,0.54-0.436,0.729-0.995,0.717c-1.607-0.03-3.219-0.009-4.829-0.009
		C24.136,19.316,23.843,19.316,23.438,19.316z M28.327,16.782c-0.023-1.698-1.018-2.702-2.528-2.653
		c-1.416,0.049-2.39,1.151-2.287,2.653C25.096,16.782,26.687,16.782,28.327,16.782z"/>
	<path fill-rule="evenodd" clip-rule="evenodd" fill="#FFFFFF" d="M29.976,28.478c0.256-0.78,0.45-1.395,0.659-2.008
		c2.204-6.508,4.417-13.017,6.613-19.53c0.154-0.452,0.371-0.671,0.874-0.65c0.836,0.035,1.677,0.009,2.672,0.009
		c-0.461,1.391-0.874,2.648-1.297,3.897c-1.964,5.787-3.946,11.565-5.877,17.361c-0.245,0.736-0.585,1.002-1.335,0.935
		C31.565,28.429,30.836,28.478,29.976,28.478z"/>
	<path fill-rule="evenodd" clip-rule="evenodd" fill="#FFFFFF" d="M47.27,20.919c0.377,1.113,0.738,2.097,1.027,3.101
		c0.042,0.151-0.222,0.496-0.419,0.592c-3.14,1.551-7.897,0.454-8.756-4.111c-0.086-0.464,0.135-1.012,0.293-1.491
		c0.634-1.913,1.372-3.795,1.926-5.728c0.324-1.13,0.885-1.743,2.055-1.966c1.544-0.296,3.01-0.251,4.449,0.419
		c0.426,0.2,0.573,0.429,0.403,0.89c-0.274,0.739-0.505,1.496-0.75,2.246c-0.149,0.457-0.417,0.436-0.745,0.196
		c-2.155-1.575-4.123-0.133-4.216,1.91c-0.049,1.081-0.044,2.195,0.175,3.241c0.342,1.633,2.408,2.304,3.79,1.332
		C46.718,21.396,46.911,21.215,47.27,20.919z"/>
	<path fill-rule="evenodd" clip-rule="evenodd" fill="#FFFFFF" d="M13.945,12.118c1.062-0.314,2.092-0.794,3.161-0.904
		c1.943-0.198,2.134,0.126,1.535,1.929c-0.212,0.636-0.436,1.27-0.675,1.964c-0.208-0.112-0.329-0.163-0.434-0.238
		c-0.75-0.552-1.563-0.638-2.388-0.233c-0.857,0.424-1.141,1.223-1.148,2.111c-0.023,2.427-0.037,4.854,0.007,7.279
		c0.014,0.797-0.163,1.172-1.035,1.066c-0.796-0.098-1.87,0.185-2.334-0.237c-0.405-0.37-0.154-1.486-0.158-2.271
		c-0.007-3.464,0.014-6.927-0.019-10.389c-0.005-0.685,0.203-0.939,0.883-0.872c0.459,0.044,0.927,0.021,1.388,0.005
		C13.421,11.305,14.138,11.219,13.945,12.118z"/>
	<path fill-rule="evenodd" clip-rule="evenodd" fill="#FFFFFF" d="M1.18,18.054c2.043-2.055,4.258-4.282,6.52-6.56
		c0,1.292,0.019,2.611-0.016,3.93c-0.007,0.195-0.235,0.415-0.403,0.578c-0.699,0.68-1.414,1.346-2.166,2.059
		c0.79,0.794,1.491,1.438,2.11,2.152c0.256,0.298,0.45,0.743,0.471,1.132c0.062,1.135,0.023,2.274,0.023,3.483
		C5.45,22.478,3.26,20.208,1.18,18.054z"/>
	<path fill-rule="evenodd" clip-rule="evenodd" fill="#FFFFFF" d="M92.151,11.487c2.267,2.273,4.481,4.498,6.669,6.693
		c-2.104,2.105-4.338,4.342-6.664,6.674c0-1.396-0.052-2.739,0.034-4.077c0.021-0.321,0.478-0.631,0.762-0.917
		c0.55-0.555,1.123-1.091,1.819-1.767c-0.799-0.752-1.514-1.416-2.218-2.091c-0.151-0.149-0.382-0.331-0.387-0.499
		C92.135,14.156,92.151,12.81,92.151,11.487z"/>
</g>
<g>
	<g>
		<path fill="#FFFFFF" d="M36.978,55.2v6.196h-2.264V55.2h-2.287v-1.972h6.838V55.2H36.978z"/>
		<path fill="#FFFFFF" d="M44.55,58.935h-3.595c0.07,0.677,0.467,0.979,1.039,0.979c0.536,0,0.981-0.115,1.587-0.432l0.806,1.344
			c-0.759,0.441-1.541,0.698-2.497,0.698c-1.845,0-2.859-1.307-2.859-3.186c0-2.112,1.189-3.196,2.8-3.196
			c1.681,0,2.731,1.108,2.731,3.384C44.562,58.701,44.562,58.83,44.55,58.935z M41.772,56.693c-0.479,0-0.747,0.327-0.817,0.934
			h1.751C42.601,57.01,42.391,56.693,41.772,56.693z"/>
		<path fill="#FFFFFF" d="M48.457,61.524c-1.796,0-2.87-1.142-2.87-3.208c0-1.879,0.957-3.174,2.917-3.174
			c1.156,0,1.821,0.536,2.358,1.399l-1.446,1.097c-0.293-0.535-0.493-0.793-0.946-0.793c-0.536,0-0.804,0.537-0.804,1.505
			c0,0.97,0.291,1.471,0.862,1.471c0.396,0,0.677-0.222,1.062-0.794l1.331,1.038C50.208,61.117,49.542,61.524,48.457,61.524z"/>
		<path fill="#FFFFFF" d="M55.622,61.396v-3.478c0-0.793-0.269-1.003-0.701-1.003c-0.443,0-0.712,0.21-0.712,0.979v3.501h-2.101
			V53.73l2.101-0.842v2.79c0.385-0.292,0.817-0.536,1.539-0.536c1.344,0,1.985,0.898,1.985,2.508v3.746H55.622z"/>
		<path fill="#FFFFFF" d="M62.761,61.524c-2.426,0-3.723-1.797-3.723-4.212c0-2.627,1.542-4.213,3.735-4.213
			c2.006,0,2.8,0.863,3.359,2.404l-2.052,0.805c-0.294-0.758-0.572-1.237-1.32-1.237c-0.943,0-1.354,0.944-1.354,2.241
			c0,1.248,0.397,2.239,1.377,2.239c0.711,0,1.016-0.384,1.459-1.154l1.913,1.016C65.609,60.486,64.699,61.524,62.761,61.524z"/>
		<path fill="#FFFFFF" d="M71.325,57.58c-0.268-0.291-0.572-0.514-0.979-0.514c-0.516,0-0.83,0.246-0.83,0.993v3.337h-2.102V55.27
			h2.102v0.443c0.36-0.35,0.771-0.57,1.307-0.57c0.443,0,0.748,0.104,0.993,0.255L71.325,57.58z"/>
		<path fill="#FFFFFF" d="M76.319,61.396v-0.408c-0.374,0.291-0.817,0.536-1.529,0.536c-1.343,0-1.985-0.898-1.985-2.509V55.27
			h2.112v3.479c0,0.793,0.271,1.003,0.701,1.003c0.433,0,0.701-0.21,0.701-0.979V55.27h2.111v6.127H76.319z"/>
		<path fill="#FFFFFF" d="M83.458,61.396v-3.478c0-0.793-0.269-1.003-0.699-1.003c-0.443,0-0.714,0.21-0.714,0.979v3.501h-2.099
			V55.27h2.099v0.409c0.387-0.292,0.817-0.536,1.542-0.536c1.343,0,1.985,0.898,1.985,2.508v3.746H83.458z"/>
		<path fill="#FFFFFF" d="M89.663,61.524c-1.794,0-2.869-1.142-2.869-3.208c0-1.879,0.956-3.174,2.918-3.174
			c1.155,0,1.82,0.536,2.356,1.399l-1.446,1.097c-0.291-0.535-0.492-0.793-0.945-0.793c-0.537,0-0.805,0.537-0.805,1.505
			c0,0.97,0.291,1.471,0.863,1.471c0.395,0,0.676-0.222,1.06-0.794l1.333,1.038C91.417,61.117,90.749,61.524,89.663,61.524z"/>
		<path fill="#FFFFFF" d="M96.828,61.396v-3.478c0-0.793-0.269-1.003-0.699-1.003c-0.445,0-0.714,0.21-0.714,0.979v3.501h-2.099
			V53.73l2.099-0.842v2.79c0.387-0.292,0.817-0.536,1.542-0.536c1.341,0,1.982,0.898,1.982,2.508v3.746H96.828z"/>
	</g>
	<g>
		<polygon fill="#FFFFFF" points="1,49.742 1,55.742 5,55.742 5,64.742 10,64.742 10,55.742 14,55.742 14,49.742 		"/>
		<polygon fill="#FFFFFF" points="18,58.742 18,55.742 14,55.742 14,64.742 29,64.742 29,58.742 		"/>
		<rect x="18" y="49.742" fill="#FFFFFF" width="11" height="6"/>
	</g>
</g>
<g>
	<g id="XMLID_1_">
		<path fill="#FFFFFF" d="M98.354-61.574c0,0.828,0,1.636,0,2.48c-0.461,0-0.919,0-1.396,0c-0.004,0.12-0.013,0.211-0.013,0.302
			c-0.001,0.935-0.003,1.867,0.002,2.803c0,0.136,0.016,0.275,0.04,0.412c0.085,0.454,0.485,0.719,0.973,0.643
			c0.093-0.013,0.181-0.034,0.316-0.062c0,0.306,0,0.588,0,0.87c0,0.397,0.009,0.795-0.008,1.193
			c-0.002,0.076-0.083,0.201-0.143,0.212c-0.965,0.176-1.934,0.325-2.904,0.046c-0.995-0.286-1.425-0.802-1.444-1.831
			c-0.024-1.405-0.012-2.813-0.015-4.218c0-0.109,0-0.219,0-0.367c-0.208,0-0.399,0.016-0.586-0.008
			c-0.067-0.008-0.174-0.109-0.174-0.169c-0.014-0.755-0.009-1.513-0.009-2.303c0.346,0,0.673,0,1.029,0
			c0-0.633,0.012-1.232-0.006-1.831c-0.007-0.234,0.071-0.31,0.295-0.357c0.865-0.183,1.724-0.393,2.623-0.599
			c0,0.929,0,1.836,0,2.784C97.438-61.574,97.888-61.574,98.354-61.574z"/>
		<path fill="#FFFFFF" d="M92.58-55.168c0,0.829,0,1.636,0,2.456c-1.221,0-2.437,0-3.684,0c-0.027-0.297-0.056-0.605-0.078-0.865
			c-0.354,0.261-0.699,0.591-1.104,0.802c-0.988,0.513-2.417,0.346-3.16-0.309c-0.453-0.4-0.681-0.915-0.757-1.498
			c-0.135-1.063,0.054-2.029,0.922-2.757c0.608-0.511,1.343-0.723,2.113-0.798c0.612-0.058,1.232-0.066,1.863-0.099
			c0-0.297,0.034-0.613-0.008-0.916c-0.059-0.399-0.41-0.661-0.785-0.645c-0.408,0.02-0.74,0.33-0.794,0.753
			c-0.015,0.101-0.015,0.203-0.022,0.326c-1.005,0-2.007,0-3.005,0c0.008-0.661,0.121-1.287,0.542-1.821
			c0.493-0.626,1.167-0.941,1.922-1.112c1.204-0.274,2.383-0.195,3.53,0.263c1.196,0.481,1.789,1.353,1.797,2.649
			c0.009,1.083,0.004,2.165,0.004,3.248c0,0.099,0,0.198,0,0.321C92.118-55.168,92.336-55.168,92.58-55.168z M88.644-55.275
			c0.082-0.43,0.074-0.878,0.108-1.354c-0.282,0-0.503-0.022-0.721,0.003c-0.541,0.065-0.888,0.364-1.012,0.845
			c-0.157,0.597,0.112,1.124,0.622,1.217C88.077-54.484,88.549-54.785,88.644-55.275z"/>
		<path fill="#FFFFFF" d="M83.541-56.523c-1.87,0-3.658,0-5.474,0c0.004,0.466,0.019,0.904,0.213,1.313
			c0.196,0.412,0.529,0.599,1.015,0.567c0.438-0.029,0.745-0.243,0.895-0.663c0.049-0.139,0.081-0.281,0.123-0.433
			c1.012,0,2.026,0,3.042,0c-0.172,1.562-1.091,2.646-2.605,3.056c-1.084,0.294-2.17,0.271-3.244-0.061
			c-1.203-0.37-2.029-1.152-2.404-2.356c-0.466-1.492-0.466-2.988,0.182-4.429c0.612-1.357,1.742-2.024,3.182-2.218
			c0.761-0.101,1.515-0.039,2.245,0.185c1.569,0.482,2.407,1.603,2.668,3.177C83.477-57.788,83.486-57.175,83.541-56.523z
			 M78.175-58.23c0.723,0,1.415,0,2.13,0c-0.017-0.493-0.054-0.955-0.539-1.201c-0.399-0.205-0.81-0.212-1.174,0.062
			C78.217-59.087,78.153-58.675,78.175-58.23z"/>
		<path fill="#FFFFFF" d="M74.147-56.856c0.279,1.056,0.184,2.054-0.52,2.932c-0.537,0.672-1.263,1.01-2.096,1.112
			c-0.574,0.069-1.159,0.105-1.738,0.11c-1.738,0.013-3.476,0.005-5.214,0.005c-0.101,0-0.203,0-0.326,0c0-0.816,0-1.622,0-2.445
			c0.344,0,0.684,0,1.049,0c0-2.402,0-4.789,0-7.191c-0.346,0-0.686,0-1.047,0c0-0.823,0-1.628,0-2.464c0.091,0,0.18,0,0.269,0
			c1.749,0,3.495-0.018,5.243,0.009c0.632,0.013,1.27,0.093,1.89,0.216c1.291,0.258,1.997,1.113,2.229,2.375
			c0.159,0.86,0.068,1.695-0.535,2.37c-0.281,0.315-0.674,0.531-1.021,0.786c-0.086,0.063-0.189,0.101-0.326,0.172
			c0.142,0.049,0.244,0.088,0.348,0.12C73.304-58.455,73.896-57.808,74.147-56.856z M70.83-55.621
			c0.562-0.701,0.064-1.843-0.827-1.954c-0.172-0.022-0.347-0.039-0.522-0.042c-0.323-0.005-0.647-0.002-0.969-0.002
			c0,0.853,0,1.635,0,2.483c0.564-0.027,1.103-0.017,1.623-0.094C70.385-55.269,70.674-55.428,70.83-55.621z M69.901-59.995
			c0.529-0.096,0.895-0.646,0.876-1.197c-0.02-0.623-0.375-1.102-0.959-1.175c-0.422-0.055-0.857-0.013-1.316-0.013
			c0,0.727,0,1.464,0.002,2.201c0,0.073,0.01,0.145,0.021,0.279C68.992-59.928,69.456-59.912,69.901-59.995z"/>
		<path fill="#FFFFFF" d="M63.462-56.525c-1.875,0-3.656,0-5.503,0c0.06,0.396,0.081,0.776,0.177,1.133
			c0.14,0.519,0.51,0.767,1.026,0.754c0.504-0.012,0.832-0.267,0.986-0.776c0.031-0.103,0.059-0.209,0.09-0.323
			c1.014,0,2.021,0,3.047,0c-0.178,1.271-0.739,2.281-1.938,2.806c-1.479,0.647-2.988,0.62-4.464-0.028
			c-0.982-0.43-1.6-1.219-1.895-2.231c-0.377-1.291-0.399-2.593,0.034-3.877c0.54-1.602,1.704-2.448,3.351-2.673
			c0.647-0.089,1.29-0.049,1.927,0.098c1.682,0.388,2.655,1.462,2.976,3.126C63.398-57.879,63.4-57.22,63.462-56.525z
			 M60.209-58.235c0.062-0.82-0.346-1.326-1.057-1.336c-0.674-0.011-1.11,0.529-1.049,1.336
			C58.815-58.235,59.513-58.235,60.209-58.235z"/>
		<path fill="#FFFFFF" d="M54.039-61.448c0.006,0.886-0.004,1.772-0.01,2.659c0,0.008-0.012,0.014-0.031,0.037
			c-0.417,0-0.855-0.057-1.274,0.011c-0.897,0.146-1.329,0.667-1.358,1.582c-0.018,0.646-0.002,1.292-0.002,1.98
			c0.299,0,0.635,0,0.985,0c0,0.841,0,1.641,0,2.461c-1.612,0-3.225,0-4.86,0c0-0.816,0-1.61,0-2.438c0.232,0,0.459,0,0.701,0
			c0-1.324,0-2.613,0-3.934c-0.23,0-0.456,0-0.696,0c0-0.841,0-1.649,0-2.473c1.145,0,2.276,0,3.446,0
			c0.032,0.442,0.065,0.89,0.102,1.398c0.052-0.105,0.081-0.159,0.101-0.213c0.284-0.743,0.816-1.185,1.605-1.263
			c0.362-0.039,0.735-0.003,1.101,0.02C53.919-61.615,54.039-61.509,54.039-61.448z"/>
		<path fill="#FFFFFF" d="M46.757-55.166c0,0.827,0,1.626,0,2.445c-1.193,0-2.39,0-3.626,0c0-0.282,0-0.569,0-0.824
			c-0.369,0.26-0.7,0.559-1.086,0.752c-0.696,0.354-1.455,0.404-2.216,0.241c-1.086-0.23-1.787-1.029-1.833-2.173
			c-0.054-1.348-0.039-2.698-0.054-4.048c-0.001-0.107,0-0.216,0-0.348c-0.25,0-0.469,0-0.705,0c0-0.821,0-1.622,0-2.438
			c1.297,0,2.586,0,3.919,0c0,0.104,0,0.211,0,0.316c0,1.628-0.005,3.255,0.004,4.882c0.002,0.227,0.039,0.464,0.112,0.679
			c0.109,0.322,0.391,0.49,0.735,0.477c0.339-0.01,0.58-0.172,0.7-0.491c0.042-0.112,0.091-0.229,0.092-0.346
			c0.008-1.015,0.005-2.032,0.005-3.069c-0.191,0-0.381,0-0.599,0c0-0.826,0-1.631,0-2.451c1.268,0,2.531,0,3.833,0
			c0,2.136,0,4.252,0,6.396C46.283-55.166,46.507-55.166,46.757-55.166z"/>
		<path fill="#FFFFFF" d="M36.694-61.584c0,0.828,0,1.636,0,2.48c-0.45,0-0.906,0-1.341,0c-0.033,0.048-0.052,0.063-0.052,0.08
			c-0.001,1.072-0.024,2.147,0.005,3.218c0.02,0.687,0.424,0.967,1.098,0.846c0.062-0.01,0.123-0.015,0.217-0.024
			c0,0.719,0.003,1.418-0.006,2.118c-0.002,0.054-0.096,0.138-0.158,0.149c-0.922,0.167-1.844,0.299-2.777,0.074
			c-1.081-0.258-1.563-0.86-1.565-1.971c-0.001-1.368,0-2.736,0-4.107c0-0.11,0-0.221,0-0.367c-0.259,0-0.503,0-0.759,0
			c0-0.839,0-1.64,0-2.48c0.321,0,0.646,0,1.001,0c0-0.628,0.01-1.217-0.005-1.808c-0.006-0.234,0.057-0.334,0.3-0.386
			c0.867-0.18,1.729-0.39,2.631-0.596c0,0.934,0,1.844,0,2.774C35.771-61.584,36.22-61.584,36.694-61.584z"/>
		<path fill="#FFFFFF" d="M30.99-55.173c0,0.833,0,1.638,0,2.459c-1.295,0-2.587,0-3.925,0c0-0.104,0-0.211,0-0.316
			c0-1.699,0.003-3.402-0.001-5.103c-0.003-0.742-0.598-1.127-1.209-0.795c-0.276,0.147-0.441,0.386-0.515,0.688
			c-0.013,0.063-0.029,0.128-0.029,0.191c-0.003,0.952-0.001,1.9-0.001,2.878c0.17,0,0.354,0,0.555,0c0,0.832,0,1.639,0,2.459
			c-1.49,0-2.976,0-4.477,0c0-0.811,0-1.61,0-2.441c0.224,0,0.442,0,0.68,0c0-1.323,0-2.612,0-3.933c-0.219,0-0.437,0-0.675,0
			c0-0.839,0-1.647,0-2.472c1.159,0,2.32,0,3.503,0c0.034,0.409,0.068,0.81,0.109,1.286c0.534-0.87,1.249-1.37,2.177-1.487
			c0.469-0.059,0.968-0.05,1.425,0.052c1.052,0.232,1.643,1.016,1.659,2.133c0.021,1.349,0.01,2.698,0.015,4.049
			c0,0.11,0,0.218,0,0.353C30.527-55.173,30.747-55.173,30.99-55.173z"/>
		<path fill="#FFFFFF" d="M20.819-56.525c-1.872,0-3.652,0-5.464,0c-0.016,0.494,0.008,0.96,0.237,1.387
			c0.2,0.376,0.539,0.516,0.95,0.498c0.401-0.017,0.712-0.189,0.88-0.566c0.073-0.166,0.118-0.346,0.178-0.531
			c0.999,0,2.005,0,3.034,0c-0.158,1.2-0.666,2.181-1.766,2.72c-1.591,0.775-3.222,0.74-4.807-0.033
			c-0.914-0.444-1.466-1.23-1.737-2.197c-0.362-1.294-0.38-2.594,0.07-3.874c0.549-1.562,1.696-2.386,3.305-2.617
			c0.712-0.103,1.422-0.055,2.115,0.131c1.67,0.45,2.571,1.589,2.844,3.251C20.755-57.769,20.765-57.168,20.819-56.525z
			 M17.569-58.235c0.015-0.469-0.039-0.895-0.459-1.157c-0.379-0.24-0.793-0.26-1.18-0.021c-0.429,0.263-0.484,0.703-0.487,1.178
			C16.162-58.235,16.856-58.235,17.569-58.235z"/>
		<path fill="#FFFFFF" d="M13.159-64.775c0,0.802,0,1.601,0,2.441c-0.163,0-0.33,0.024-0.487-0.005
			c-0.234-0.044-0.318,0.044-0.385,0.261c-0.937,3.024-1.886,6.047-2.82,9.072c-0.071,0.233-0.161,0.316-0.414,0.313
			c-1.201-0.015-2.402-0.007-3.621-0.007c-0.268-0.846-0.534-1.677-0.795-2.511c-0.726-2.297-1.451-4.595-2.169-6.897
			c-0.062-0.194-0.149-0.268-0.355-0.232c-0.141,0.024-0.292,0.005-0.466,0.005c0-0.834,0-1.626,0-2.441c1.726,0,3.449,0,5.187,0
			c0,0.804,0,1.602,0,2.427c-0.341,0-0.677,0-1.047,0c0.584,2.282,1.161,4.534,1.739,6.788c0.018,0.003,0.037,0.005,0.055,0.008
			c0.622-2.25,1.243-4.5,1.873-6.781c-0.362,0-0.688,0-1.034,0c0-0.823,0-1.623,0-2.441C9.992-64.775,11.568-64.775,13.159-64.775z"
			/>
	</g>
</g>
</svg>
