<?xml version="1.0" encoding="utf-8"?>
<!-- Generator: Adobe Illustrator 16.0.0, SVG Export Plug-In . SVG Version: 6.00 Build 0)  -->
<!DOCTYPE svg PUBLIC "-//W3C//DTD SVG 1.1//EN" "http://www.w3.org/Graphics/SVG/1.1/DTD/svg11.dtd">
<svg version="1.1" id="Layer_1" xmlns="http://www.w3.org/2000/svg" xmlns:xlink="http://www.w3.org/1999/xlink" x="0px" y="0px"
	 width="100px" height="34.742px" viewBox="0 0 100 34.742" enable-background="new 0 0 100 34.742" xml:space="preserve">
<path fill="#FFFFFF" d="M16.242-99.12c0.118,0.028,0.239,0.04,0.352,0.04c0.727,0,1.383-0.501,1.552-1.243
	c0.984-4.375,3.027-11.435,4.114-12.989c1.945-2.803,5.371-2.753,5.549-2.749l4.85-0.014c0.038-0.001,4.475-0.45,6.424,2.84
	c0.038,0.063,0.08,0.125,0.123,0.179c1.176,1.488,3.378,8.653,4.311,12.743c0.202,0.854,1.055,1.385,1.908,1.193
	c0.853-0.197,1.387-1.051,1.194-1.907c-0.497-2.151-2.886-11.287-4.85-13.914c-2.999-4.936-9.189-4.32-9.283-4.3h-0.764
	c5.535-0.733,9.832-5.428,9.832-11.158c0-6.235-5.07-11.299-11.308-11.299c-6.228,0-11.294,5.064-11.294,11.299
	c0,5.73,4.293,10.425,9.823,11.158h-0.91c-0.205-0.004-5.258-0.145-8.214,4.11c-1.749,2.509-4.077,11.771-4.606,14.109
	C14.85-100.164,15.385-99.312,16.242-99.12z M22.128-130.399c0-4.478,3.641-8.119,8.117-8.119c4.484,0,8.131,3.642,8.131,8.119
	c0,4.48-3.646,8.129-8.131,8.129C25.769-122.271,22.128-125.919,22.128-130.399z M93.407-153.155H6.589
	c-0.88,0-1.589,0.713-1.589,1.592v62.353c0,0.877,0.708,1.59,1.589,1.59h86.818c0.88,0,1.593-0.713,1.593-1.59v-62.353
	C95-152.442,94.287-153.155,93.407-153.155z M91.817-90.801H8.177v-59.174h83.64V-90.801z M53.854-131.318
	c0-0.878,0.712-1.588,1.593-1.588H82.3c0.882,0,1.593,0.71,1.593,1.588c0,0.879-0.711,1.592-1.593,1.592H55.447
	C54.566-129.726,53.854-130.438,53.854-131.318z M53.854-120.397c0-0.879,0.712-1.59,1.593-1.59H82.3
	c0.882,0,1.593,0.711,1.593,1.59c0,0.876-0.711,1.59-1.593,1.59H55.447C54.566-118.807,53.854-119.521,53.854-120.397z
	 M53.854-109.472c0-0.878,0.712-1.589,1.593-1.589H82.3c0.882,0,1.593,0.711,1.593,1.589c0,0.879-0.711,1.59-1.593,1.59H55.447
	C54.566-107.882,53.854-108.593,53.854-109.472z"/>
<g>
	<path fill="#FFFFFF" d="M93.988-234.707l-5.407-9.05c-0.718-1.196-1.733-1.501-3.128-1.501H16.596
		c-1.405,0-2.706,0.316-3.419,1.526l-6.712,11.158c-0.359,0.608-0.549,1.193-0.551,1.899l-0.237,71.016
		c-0.003,1.055,0.413,2.277,1.158,3.024c0.745,0.748,1.757,1.377,2.812,1.377H91.14c2.192,0,2.86-2.249,2.86-4.441v-72.964
		C94-233.383,94.359-234.089,93.988-234.707z M16.596-241.258h68.682h0.175L90-232.664v1.406H10.636L16.596-241.258z M9.647-159.258
		l0.23-69H90v69H9.647z"/>
	<path fill="#FFFFFF" d="M78.991-219.258H23.404c-0.548,0-2.404-0.409-2.404,0.14v6.86h-1.898c-0.365,0-1.102,0-1.102,0v13.323
		c0,0.366,0.737,1.677,1.102,1.677H21v8h-1.898c-0.365,0-1.102-1-1.102,0v12.823c0,0.366,0.737,1.177,1.102,1.177H21v6.434
		c0,0.548,1.855,1.566,2.404,1.566h55.587c0.549,0,0.009-1.019,0.009-1.566v-50.294C79-219.667,79.54-219.258,78.991-219.258z
		 M19-211.258h5v12h-5V-211.258z M19-188.258h5v12h-5V-188.258z M77-169.258H23v-6h2c1,0,0-0.811,0-1.177v-12.823c0-1,0,0,0,0h-2v-8
		h2c1,0,0-1.311,0-1.677v-13.323l0,0h-2v-5h54V-169.258z"/>
	<path fill="#FFFFFF" d="M40.814-177.583c1.329-1.135,1.663-2.985,0.952-4.494l1.353-1.154c2.542,2.692,6.131,4.384,10.117,4.384
		c3.835,0,7.312-1.558,9.833-4.073l0.834,0.693c-0.69,1.518-0.33,3.362,1.014,4.479c1.61,1.338,3.999,1.118,5.337-0.492
		c1.339-1.609,1.117-4-0.492-5.338c-1.344-1.117-3.225-1.133-4.59-0.176l-0.812-0.674c1.752-2.329,2.547-5.214,2.547-8.346
		c0-7.587-5.906-13.764-13.906-13.914v-1.323c2-0.349,3.295-1.879,3.295-3.715c0-2.093-1.568-3.79-3.662-3.79
		c-2.093,0-3.989,1.697-3.989,3.79c0,1.661,0.356,3.069,2.356,3.581v1.559c-7,0.846-11.956,6.711-11.956,13.813
		c0,2.98,1.082,5.739,2.683,8.007l-1.316,1.182c-1.378-0.938-3.225-0.896-4.553,0.238c-1.592,1.36-1.763,3.752-0.404,5.344
		C36.813-176.412,39.224-176.224,40.814-177.583z M53.235-180.171c-3.583,0-6.814-1.511-9.111-3.92l4.544-3.882
		c1.19,1.132,2.795,1.831,4.567,1.831c1.582,0,3.034-0.556,4.174-1.48l4.633,3.849C59.768-181.549,56.661-180.171,53.235-180.171z
		 M65.584-192.774c0,2.811-0.809,5.401-2.37,7.5l-4.527-3.814c0.705-1.055,0.894-2.321,0.894-3.686c0-3.57-2.58-6.473-6.58-6.619
		v-5.972C60-205.215,65.584-199.632,65.584-192.774z M40.368-192.774c0-6.37,4.632-11.638,10.632-12.476v6.072
		c-3,0.754-4.661,3.331-4.661,6.403c0,1.175,0.44,2.276,0.977,3.233l-4.647,3.914C41.262-187.66,40.368-190.121,40.368-192.774z"/>
</g>
<g>
	<path fill="#FFFFFF" d="M294,17.742h12v3h1v-3h12v3h1V4.214c0-0.971-0.141-1.472-1.116-1.472h-28.435c0.195,0,0.355,1,0.487,1H293
		v6h-1.79c-0.078,0-0.181,1-0.317,1H293v6h-5.146c-0.498,1-1.044,1-1.624,1H293v6h-11v-3.599c-1,0.161-1,0.287-2,0.385v3.214h-5v-3
		h-1v22.1c0,0.595,0,1.122,0,1.444v0.456h0.847c0.122,0,0.244,0,0.376,0H296v-2h-2v-5h2v-1h-2v-5h2v-1h-2v-6h2v-1h-2V17.742z
		 M307,3.742h11.884c0.141,0,0.116,0.335,0.116,0.472v5.528h-12V3.742z M307,10.742h12v6h-12V10.742z M294,3.742h12v6h-12V3.742z
		 M294,10.742h12v6h-12V10.742z M280,42.742h-4.909c-0.073,0-0.091,0.188-0.091,0.1v-5.1h5V42.742z M280,36.742h-5v-5h5V36.742z
		 M280,30.742h-5v-6h5V30.742z M293,42.742h-11v-5h11V42.742z M293,36.742h-11v-5h11V36.742z M293,30.742h-11v-6h11V30.742z"/>
	<path fill="#FFFFFF" d="M303.115,31.272c0.199,0,0.391-0.038,0.57-0.106l2.644,4.136c-0.365,0.347-0.6,0.839-0.6,1.381
		c0,1.048,0.854,1.901,1.902,1.901c1.054,0,1.901-0.854,1.901-1.901c0-0.293-0.068-0.566-0.186-0.811l3.469-2.536
		c0.268,0.229,0.614,0.376,0.999,0.376c0.42,0,0.806-0.171,1.083-0.449l3.546,2.22c-0.181,0.316-0.283,0.683-0.283,1.072
		c0,1.195,0.966,2.166,2.161,2.166c1.194,0,2.165-0.971,2.165-2.166c0-1.194-0.971-2.16-2.165-2.16c-0.541,0-1.039,0.2-1.42,0.536
		l-3.628-2.272c0.048-0.156,0.083-0.321,0.083-0.493c0-0.854-0.693-1.546-1.542-1.546c-0.854,0-1.546,0.692-1.546,1.546
		c0,0.215,0.044,0.415,0.122,0.601l-3.463,2.531c-0.341-0.317-0.795-0.517-1.297-0.517c-0.249,0-0.483,0.054-0.703,0.137
		l-2.639-4.132c0.303-0.297,0.488-0.717,0.488-1.175c0-0.922-0.741-1.663-1.663-1.663c-0.917,0-1.663,0.741-1.663,1.663
		C301.452,30.527,302.198,31.272,303.115,31.272z"/>
	<path fill="#FFFFFF" d="M299,22.742v24h26v-24H299z M324,36.555v9.188h-0.146H300V29.61v-5.868h24V36.555z"/>
	<path fill="#FFFFFF" d="M255,14.742h-8.109c-4.02,0-7.287-3.353-7.287-7.371s3.268-7.329,7.287-7.329
		c0.204,0,0.404-0.001,0.6,0.012c0.063,0.005,0.127-0.005,0.19-0.005c0.673,0,1.297-0.288,1.736-0.761
		c0.088-0.093,0.171-0.197,0.243-0.31c0.068-0.107,0.132-0.226,0.186-0.348s0.098-0.25,0.132-0.381
		c0.98-3.901,4.473-6.628,8.496-6.628c2.297,0,4.468,0.887,6.121,2.497c0.166,0.161,0.356,0.272,0.556,0.38
		c0.337,0.176,0.712,0.244,1.098,0.244h0.005c0.161,0,0.316,0.005,0.478-0.023c0.493-0.103,0.995-0.144,1.493-0.144
		c2.813,0,5.326,1.585,6.555,4.131c0.127,0.254,0.293,0.486,0.487,0.677c0.122,0.112,0.254,0.216,0.391,0.303
		c0.137,0.089,0.288,0.162,0.439,0.221c0.258,0.093,0.526,0.142,0.81,0.142c0.083,0,0.16,0,0.243-0.01
		C277.393,0.014,277.642,0,277.88,0c2.161,0,4.107,0.946,5.443,2.453c0.405,0.454,0.756,0.961,1.034,1.507
		c0.512,0.995,0.805,2.127,0.805,3.327c0,0.697-0.098,1.37-0.283,2.009c-0.15,0.532-0.361,1.039-0.624,1.512
		c-0.561,1.015-1.36,1.883-2.316,2.521c-0.469,0.317-0.976,0.665-1.513,0.865c-0.795,0.303-1.653,0.548-2.546,0.548h-2.911h-1.512
		H269v5h4.457h1.512h2.907c0.877,0,1.73-0.31,2.55-0.489c0.518-0.112,1.024-0.366,1.513-0.542c0.575-0.205,1.126-0.509,1.653-0.797
		c0.785-0.424,1.512-0.958,2.175-1.538c1.673-1.459,2.941-3.384,3.604-5.554c0.151-0.488,0.273-1.002,0.356-1.519
		c0.111-0.653,0.17-1.331,0.17-2.013c0-1.151-0.161-2.269-0.468-3.329c-0.151-0.517-0.332-1.02-0.547-1.507
		c-1.735-3.936-5.521-6.775-10.003-7.146c-0.39-0.034-0.746-0.234-0.98-0.547c-2.243-3.038-5.843-4.911-9.676-4.911
		c-0.244,0-0.488,0.005-0.731,0.024c-0.176,0.01-0.352-0.015-0.513-0.068c-0.142-0.044-0.269-0.117-0.391-0.205
		c-2.33-1.766-5.154-2.717-8.115-2.717c-5.302,0-10.008,3.073-12.203,7.726c-0.194,0.42-0.585,0.708-1.044,0.771
		c-5.842,0.811-10.359,6.061-10.359,12.122c0,6.629,5.395,12.239,12.023,12.239H255V14.742z"/>
	<path fill="#FFFFFF" d="M269.33,22.742H267v-1.97V7.94c0-1.112-0.776-2.198-1.884-2.198h-5.467c-1.103,0-2.649,1.086-2.649,2.198
		V19.31v3.433h-1.565c-0.507,0-0.965,0.249-1.18,0.707c-0.215,0.459-0.137,0.98,0.19,1.365l5.916,6.948
		c0.507,0.591,1.243,0.926,2.023,0.926c0.776,0,1.518-0.344,2.024-0.934l5.911-6.963c0.332-0.385,0.405-0.883,0.19-1.342
		C270.301,22.992,269.838,22.742,269.33,22.742z"/>
</g>
<g>
	<g>
		<g>
			<path fill="#FFFFFF" d="M93.723,2.725L93.723,2.725L93.723,2.725c0,0-0.17-0.025-0.285-0.025c-0.659,0-1.31,0.389-1.31,1.374
				c-0.392,4.946-0.796,9.909-1.464,14.627l-0.004,0.004c0.004,0,0.004,0,0.004,0l0,0h0.004c0.404-0.07,0.715,0.034,1.021,0.157
				l-0.005-0.002c0.762-4.794,2.562-11.976,3.021-14.008c0.067-0.287,0.166-0.625,0.166-0.863
				C94.872,3.261,94.412,2.839,93.723,2.725z"/>
			<path fill="#FFFFFF" d="M46.103,4.677c0.134,2.555,0.204,5.112,0.212,7.671c-3.063,0.072-6.126,0.077-9.185,0h-0.002
				c0.01-2.559,0.081-5.116,0.215-7.671c-0.898,0.217-1.812,0.221-2.74,0c0.238,5.488,0.217,10.966,0,16.434
				c0.889-0.213,1.8-0.222,2.736,0h-0.004h0.009c-0.136-2.548-0.207-5.096-0.215-7.642h0.002c3.063-0.042,6.124-0.045,9.188-0.002
				c-0.011,2.544-0.081,5.095-0.215,7.645h0.008h-0.004c0.936-0.222,1.846-0.213,2.735,0c-0.217-5.468-0.238-10.946,0-16.434
				C47.913,4.898,47,4.895,46.103,4.677z"/>
			<path fill="#FFFFFF" d="M26.562,4.671L26.56,4.673L26.562,4.671c-0.681,0.238-1.238,0.224-1.906,0.002l-0.004-0.004
				c-2.206,5.537-4.748,11.785-7.032,16.442l0,0v0.004l0.008-0.004c-0.004,0-0.004,0-0.008,0l0.017-0.004l-0.008,0.004
				c1.046-0.26,2.042-0.179,2.702,0c0,0-0.002-0.004-0.004-0.004h0.004c0.583-1.473,1.247-3.14,1.91-4.817l0.004,0.002
				c2.246-0.064,4.49-0.072,6.737,0l0,0c0.64,1.606,1.281,3.215,1.904,4.823l0,0c1.002-0.264,1.998-0.191,2.733-0.004h-0.002
				C31.968,18.034,28.664,9.987,26.562,4.671z M25.605,7.506c0.908,2.532,1.908,5.082,2.923,7.641l-0.006-0.004
				c-1.942,0.068-3.886,0.07-5.829,0l-0.002,0.002C23.882,12.129,25.009,9.221,25.605,7.506z"/>
			<path fill="#FFFFFF" d="M21.587,2.486c-0.002,0-0.002,0-0.002,0l0,0c-0.987,0.223-1.876,0.229-2.761,0
				c-0.778,1.451-3.65,6.144-5.478,9.147C11.491,8.564,9.298,5.02,7.866,2.486c-1.134,0.243-1.608,0.257-2.738,0
				c2.244,3.382,5.841,9.828,7.066,11.942l-0.164,8.818c0,0,0.789-0.128,1.317-0.128c0.585,0,1.312,0.128,1.312,0.128l-0.164-8.818
				C16.779,10.421,20.551,3.884,21.587,2.486z"/>
			<path fill="#FFFFFF" d="M58.492,4.456c-5.812,0-8.858,3.685-8.858,8.46c0,5.227,3.327,8.416,8.849,8.416
				c5.974,0,8.888-3.594,8.888-8.361C67.371,7.655,63.887,4.456,58.492,4.456z M58.509,20.4c-3.871,0-6.147-2.774-6.147-7.457
				c0-5.297,2.804-7.426,5.99-7.492c0.051-0.002,0.102,0,0.148,0c3.557,0,6.165,2.421,6.165,7.477
				C64.665,17.981,62.062,20.4,58.509,20.4z"/>
			<path fill="#FFFFFF" d="M78.556,3.465c-5.79,0-10.211,3.287-10.211,9.398c0,5.033,2.94,9.465,10.258,9.465
				c6.194,0,10.24-3.408,10.24-9.378C88.843,7.319,85.069,3.465,78.556,3.465z M71.081,12.825c0-6.433,3.956-8.336,7.479-8.336
				c4.348,0,7.547,2.64,7.547,8.462c0,6.327-3.871,8.382-7.539,8.382C74.65,21.332,71.081,19.031,71.081,12.825z"/>
			<path fill="#FFFFFF" d="M90.579,20.69c-0.859,0-1.289,0.654-1.289,1.361c0,0.834,0.663,1.264,1.489,1.264
				c0.591,0,1.242-0.362,1.242-1.345C92.021,21.184,91.404,20.69,90.579,20.69z"/>
		</g>
	</g>
	<g>
		<path fill="#FFFFFF" d="M42.474,30.909h-0.777l-3.099-4.378v4.34h-0.451v-5.353h1.311l2.565,3.634v-3.634h0.451V30.909z"/>
		<path fill="#FFFFFF" d="M47.922,25.519v0.375h-2.221v2.042h1.97v0.361h-1.97v2.199h2.334v0.375h-3.636v-5.353H47.922z"/>
		<path fill="#FFFFFF" d="M54.15,30.913l-1.385-3.79l-1.374,3.79h-0.643l-1.953-5.395h1.372l1.366,3.838l1.387-3.889h0.576
			l1.412,3.982l1.264-3.932h0.688l-2.063,5.395H54.15z"/>
		<path fill="#FFFFFF" d="M57.633,29.293h1.235c0.009,0.421,0.049,0.714,0.121,0.88c0.141,0.319,0.409,0.477,0.8,0.477
			c0.294,0,0.521-0.089,0.684-0.264c0.132-0.145,0.195-0.34,0.195-0.591c0-0.265-0.085-0.473-0.255-0.635
			c-0.111-0.102-0.236-0.187-0.377-0.246c-0.102-0.043-0.24-0.098-0.419-0.166l-0.513-0.2c-0.294-0.114-0.506-0.213-0.636-0.298
			c-0.485-0.311-0.726-0.731-0.726-1.264c0-0.392,0.128-0.728,0.383-1.004c0.366-0.392,0.923-0.591,1.668-0.591
			c0.693,0,1.212,0.187,1.557,0.557c0.253,0.272,0.379,0.617,0.377,1.034h-1.2c-0.019-0.417-0.074-0.715-0.166-0.897
			c-0.051-0.103-0.14-0.184-0.266-0.251c-0.125-0.064-0.26-0.099-0.404-0.099c-0.251,0-0.446,0.081-0.587,0.234
			c-0.128,0.141-0.189,0.328-0.189,0.565c0,0.226,0.072,0.409,0.22,0.554c0.132,0.119,0.378,0.251,0.742,0.396l0.479,0.188
			c0.368,0.145,0.627,0.264,0.776,0.357c0.48,0.306,0.721,0.735,0.721,1.289c0,0.493-0.17,0.901-0.513,1.217
			c-0.157,0.145-0.376,0.255-0.659,0.34c-0.283,0.081-0.598,0.123-0.946,0.123c-0.549,0-0.983-0.089-1.307-0.271
			c-0.242-0.137-0.434-0.328-0.576-0.57c-0.146-0.251-0.219-0.523-0.219-0.812C57.633,29.331,57.633,29.313,57.633,29.293z"/>
	</g>
</g>
<g>
	<path fill-rule="evenodd" clip-rule="evenodd" fill="#FFFFFF" d="M-83.321,47.618c-0.28,0.126-0.525,0.269-0.788,0.351
		c-0.899,0.278-2.259-0.093-2.481-1.424c-0.173-1.035-0.205-2.074,0.044-3.096c0.201-0.828,0.824-1.253,1.671-1.312
		c0.639-0.045,0.641-0.021,1.536,0.418c0-0.364,0-0.699,0-1.034c0.001-0.377,0.005-0.754,0-1.132
		c-0.003-0.211,0.075-0.318,0.302-0.312c0.297,0.01,0.594,0.008,0.891-0.001c0.204-0.006,0.295,0.083,0.292,0.284
		c-0.004,0.285-0.004,0.571-0.004,0.857c0,2.114-0.008,4.229,0.007,6.343c0.002,0.339-0.106,0.453-0.431,0.42
		c-0.192-0.02-0.39-0.016-0.583-0.001C-83.135,48.002-83.344,47.964-83.321,47.618z M-85.23,45.082
		c0.022,0.003,0.045,0.006,0.067,0.008c0,0.251-0.021,0.504,0.005,0.752c0.05,0.461,0.334,0.782,0.687,0.819
		c0.559,0.06,0.893-0.102,1.01-0.577c0.177-0.715,0.208-1.444-0.064-2.15c-0.147-0.383-0.48-0.433-0.847-0.422
		c-0.337,0.01-0.585,0.153-0.668,0.471C-85.135,44.341-85.17,44.715-85.23,45.082z"/>
	<path fill-rule="evenodd" clip-rule="evenodd" fill="#FFFFFF" d="M-76.843,46.228c0.264,0.252,0.517,0.494,0.769,0.736
		c0.173,0.165,0.021,0.266-0.083,0.36c-0.732,0.658-1.602,0.838-2.548,0.687c-1.486-0.237-1.977-1.223-2.092-2.368
		c-0.102-1.004-0.012-1.977,0.696-2.771c0.609-0.683,1.423-0.859,2.279-0.711c0.919,0.157,1.59,0.697,1.844,1.618
		c0.128,0.466,0.127,0.967,0.179,1.452c0.028,0.261-0.086,0.358-0.356,0.354c-0.927-0.014-1.853-0.006-2.778-0.006
		c-0.124,0-0.247,0-0.388,0c-0.01,0.465,0.15,0.807,0.519,1.007C-78.081,46.979-77.446,46.737-76.843,46.228z M-77.318,44.457
		c0.032-0.579-0.373-1.04-0.917-1.064c-0.63-0.028-1.058,0.385-1.077,1.064C-78.647,44.457-77.982,44.457-77.318,44.457z"/>
	<path fill-rule="evenodd" clip-rule="evenodd" fill="#FFFFFF" d="M-92.599,45.08c-0.016-0.738,0.021-1.464,0.502-2.084
		c0.541-0.697,1.673-1.041,2.53-0.813c1.332,0.354,1.775,1.271,1.82,2.224c0.024,0.547,0.026,1.101-0.037,1.642
		c-0.183,1.544-1.609,2.199-2.882,1.958c-1.271-0.241-1.896-1.156-1.933-2.377C-92.603,45.446-92.599,45.264-92.599,45.08z
		 M-91.129,45.066c0.04,0.344,0.042,0.682,0.125,0.997c0.12,0.452,0.425,0.621,0.942,0.601c0.38-0.016,0.71-0.252,0.742-0.668
		c0.049-0.619,0.041-1.248-0.008-1.868c-0.03-0.377-0.364-0.596-0.752-0.614c-0.479-0.021-0.809,0.15-0.911,0.549
		C-91.076,44.39-91.087,44.736-91.129,45.066z"/>
	<path fill-rule="evenodd" clip-rule="evenodd" fill="#FFFFFF" d="M-103.658,45.558c-0.009,0.484,0.154,0.834,0.521,1.033
		c0.67,0.364,1.299,0.194,1.947-0.21c-0.171,0.5-0.337,1.001-0.521,1.494c-0.022,0.061-0.148,0.116-0.226,0.114
		c-0.467-0.009-0.943,0.022-1.396-0.066c-0.787-0.154-1.328-0.657-1.58-1.421c-0.33-1-0.341-2.007,0.087-2.981
		c0.38-0.866,1.078-1.315,2.015-1.372c0.976-0.059,1.77,0.279,2.3,1.137c0.165,0.267,0.231,0.527,0.1,0.84
		c-0.155,0.368-0.276,0.752-0.389,1.136c-0.065,0.227-0.183,0.306-0.417,0.301c-0.674-0.013-1.35-0.004-2.024-0.004
		C-103.365,45.558-103.488,45.558-103.658,45.558z M-101.608,44.495c-0.01-0.712-0.427-1.133-1.06-1.112
		c-0.594,0.021-1.002,0.482-0.959,1.112C-102.963,44.495-102.296,44.495-101.608,44.495z"/>
	<path fill-rule="evenodd" clip-rule="evenodd" fill="#FFFFFF" d="M-100.917,49.398c0.107-0.327,0.188-0.585,0.276-0.842
		c0.924-2.729,1.852-5.457,2.772-8.188c0.064-0.189,0.155-0.281,0.366-0.272c0.351,0.015,0.703,0.004,1.12,0.004
		c-0.193,0.583-0.366,1.11-0.544,1.634c-0.823,2.426-1.654,4.849-2.464,7.278c-0.103,0.309-0.245,0.42-0.56,0.392
		C-100.251,49.378-100.557,49.398-100.917,49.398z"/>
	<path fill-rule="evenodd" clip-rule="evenodd" fill="#FFFFFF" d="M-93.667,46.229c0.158,0.467,0.31,0.879,0.431,1.3
		c0.018,0.063-0.093,0.208-0.176,0.248c-1.316,0.65-3.311,0.19-3.671-1.724c-0.036-0.194,0.057-0.424,0.123-0.625
		c0.266-0.802,0.575-1.591,0.808-2.401c0.136-0.474,0.371-0.73,0.861-0.824c0.647-0.124,1.262-0.105,1.865,0.176
		c0.179,0.084,0.24,0.18,0.169,0.373c-0.115,0.31-0.212,0.627-0.314,0.941c-0.062,0.191-0.175,0.183-0.312,0.082
		c-0.903-0.66-1.729-0.056-1.768,0.801c-0.021,0.453-0.019,0.92,0.073,1.358c0.144,0.685,1.01,0.966,1.589,0.559
		C-93.898,46.43-93.817,46.354-93.667,46.229z"/>
	<path fill-rule="evenodd" clip-rule="evenodd" fill="#FFFFFF" d="M-107.638,42.54c0.445-0.132,0.877-0.333,1.325-0.379
		c0.814-0.083,0.895,0.053,0.644,0.809c-0.089,0.267-0.183,0.532-0.283,0.823c-0.087-0.047-0.138-0.068-0.182-0.1
		c-0.314-0.231-0.655-0.268-1.001-0.098c-0.359,0.178-0.479,0.513-0.481,0.885c-0.01,1.018-0.016,2.035,0.003,3.052
		c0.006,0.334-0.068,0.491-0.434,0.447c-0.334-0.041-0.784,0.077-0.979-0.1c-0.17-0.155-0.064-0.623-0.066-0.952
		c-0.003-1.452,0.006-2.904-0.008-4.355c-0.002-0.287,0.085-0.394,0.37-0.365c0.192,0.019,0.389,0.009,0.582,0.002
		C-107.857,42.199-107.557,42.163-107.638,42.54z"/>
	<path fill-rule="evenodd" clip-rule="evenodd" fill="#FFFFFF" d="M-112.989,45.028c0.856-0.861,1.785-1.795,2.733-2.75
		c0,0.542,0.008,1.095-0.007,1.647c-0.003,0.082-0.099,0.174-0.169,0.242c-0.293,0.285-0.593,0.564-0.908,0.863
		c0.331,0.333,0.625,0.603,0.885,0.902c0.107,0.125,0.188,0.312,0.197,0.475c0.026,0.476,0.01,0.953,0.01,1.46
		C-111.199,46.883-112.117,45.932-112.989,45.028z"/>
	<path fill-rule="evenodd" clip-rule="evenodd" fill="#FFFFFF" d="M-74.852,42.275c0.95,0.953,1.879,1.886,2.796,2.806
		c-0.882,0.883-1.818,1.82-2.794,2.798c0-0.585-0.021-1.148,0.015-1.709c0.009-0.135,0.2-0.265,0.319-0.385
		c0.23-0.232,0.471-0.457,0.763-0.74c-0.335-0.315-0.635-0.594-0.93-0.877c-0.063-0.062-0.16-0.139-0.162-0.209
		C-74.858,43.395-74.852,42.83-74.852,42.275z"/>
</g>
<g>
	<g>
		<path fill="#FFFFFF" d="M-92.769,15.566v4.694h-1.715v-4.694h-1.732v-1.494h5.181v1.494H-92.769z"/>
		<path fill="#FFFFFF" d="M-87.032,18.396h-2.723c0.053,0.513,0.354,0.742,0.787,0.742c0.406,0,0.743-0.088,1.202-0.327l0.61,1.018
			c-0.575,0.335-1.167,0.529-1.892,0.529c-1.397,0-2.166-0.99-2.166-2.413c0-1.601,0.901-2.422,2.121-2.422
			c1.273,0,2.069,0.84,2.069,2.563C-87.023,18.219-87.023,18.316-87.032,18.396z M-89.136,16.697c-0.362,0-0.565,0.248-0.619,0.708
			h1.326C-88.508,16.938-88.667,16.697-89.136,16.697z"/>
		<path fill="#FFFFFF" d="M-84.072,20.357c-1.361,0-2.174-0.865-2.174-2.431c0-1.423,0.725-2.404,2.21-2.404
			c0.875,0,1.379,0.406,1.786,1.061l-1.096,0.831c-0.221-0.406-0.372-0.602-0.716-0.602c-0.407,0-0.61,0.407-0.61,1.141
			c0,0.734,0.221,1.114,0.654,1.114c0.3,0,0.513-0.168,0.805-0.602l1.008,0.786C-82.745,20.049-83.25,20.357-84.072,20.357z"/>
		<path fill="#FFFFFF" d="M-78.644,20.261v-2.635c0-0.601-0.204-0.76-0.531-0.76c-0.336,0-0.539,0.159-0.539,0.742v2.652h-1.592
			v-5.808l1.592-0.638v2.113c0.291-0.221,0.619-0.406,1.166-0.406c1.018,0,1.504,0.681,1.504,1.9v2.838H-78.644z"/>
		<path fill="#FFFFFF" d="M-73.235,20.357c-1.838,0-2.82-1.361-2.82-3.191c0-1.989,1.168-3.191,2.83-3.191
			c1.52,0,2.121,0.654,2.545,1.821l-1.555,0.61c-0.223-0.574-0.434-0.938-1-0.938c-0.715,0-1.025,0.716-1.025,1.697
			c0,0.946,0.301,1.697,1.043,1.697c0.539,0,0.77-0.291,1.105-0.875l1.449,0.77C-71.078,19.571-71.768,20.357-73.235,20.357z"/>
		<path fill="#FFFFFF" d="M-66.748,17.369c-0.203-0.221-0.433-0.389-0.742-0.389c-0.39,0-0.628,0.186-0.628,0.752v2.528h-1.592
			v-4.642h1.592v0.336c0.273-0.266,0.584-0.433,0.99-0.433c0.336,0,0.566,0.079,0.752,0.193L-66.748,17.369z"/>
		<path fill="#FFFFFF" d="M-62.964,20.261v-0.31c-0.283,0.221-0.619,0.406-1.158,0.406c-1.018,0-1.504-0.681-1.504-1.9v-2.838h1.6
			v2.635c0,0.601,0.204,0.76,0.531,0.76s0.531-0.159,0.531-0.742v-2.652h1.6v4.642H-62.964z"/>
		<path fill="#FFFFFF" d="M-57.556,20.261v-2.635c0-0.601-0.203-0.76-0.529-0.76c-0.337,0-0.541,0.159-0.541,0.742v2.652h-1.59
			v-4.642h1.59v0.31c0.293-0.221,0.619-0.406,1.168-0.406c1.017,0,1.503,0.681,1.503,1.9v2.838H-57.556z"/>
		<path fill="#FFFFFF" d="M-52.854,20.357c-1.36,0-2.174-0.865-2.174-2.431c0-1.423,0.725-2.404,2.21-2.404
			c0.876,0,1.38,0.406,1.786,1.061l-1.096,0.831c-0.222-0.406-0.373-0.602-0.717-0.602c-0.406,0-0.609,0.407-0.609,1.141
			c0,0.734,0.221,1.114,0.654,1.114c0.299,0,0.512-0.168,0.803-0.602l1.009,0.786C-51.527,20.049-52.032,20.357-52.854,20.357z"/>
		<path fill="#FFFFFF" d="M-47.427,20.261v-2.635c0-0.601-0.203-0.76-0.53-0.76c-0.337,0-0.54,0.159-0.54,0.742v2.652h-1.59v-5.808
			l1.59-0.638v2.113c0.293-0.221,0.619-0.406,1.168-0.406c1.016,0,1.502,0.681,1.502,1.9v2.838H-47.427z"/>
	</g>
	<g>
		<polygon fill="#FFFFFF" points="-120,11.742 -120,15.742 -117,15.742 -117,22.742 -113,22.742 -113,15.742 -110,15.742 
			-110,11.742 		"/>
		<polygon fill="#FFFFFF" points="-107,18.742 -107,15.742 -110,15.742 -110,22.742 -99,22.742 -99,18.742 		"/>
		<rect x="-107" y="11.742" fill="#FFFFFF" width="8" height="4"/>
	</g>
</g>
<g>
	<g id="XMLID_1_">
		<path fill="#FFFFFF" d="M-52.216-2.745c0,0.498,0,0.984,0,1.492c-0.277,0-0.553,0-0.84,0c-0.003,0.072-0.008,0.127-0.008,0.182
			c-0.001,0.562-0.002,1.124,0.001,1.686c0,0.082,0.01,0.166,0.024,0.248c0.051,0.273,0.292,0.433,0.585,0.387
			c0.056-0.008,0.108-0.021,0.19-0.037c0,0.184,0,0.354,0,0.523c0,0.239,0.005,0.479-0.005,0.718
			c-0.001,0.046-0.05,0.121-0.086,0.128c-0.58,0.105-1.163,0.195-1.747,0.027c-0.599-0.172-0.857-0.482-0.869-1.102
			c-0.015-0.846-0.007-1.693-0.009-2.538c0-0.065,0-0.132,0-0.221c-0.125,0-0.24,0.01-0.353-0.005
			c-0.04-0.005-0.104-0.065-0.104-0.102c-0.008-0.454-0.005-0.91-0.005-1.386c0.208,0,0.404,0,0.619,0
			c0-0.381,0.007-0.741-0.004-1.102c-0.004-0.141,0.043-0.187,0.178-0.215c0.521-0.11,1.037-0.236,1.578-0.36
			c0,0.559,0,1.104,0,1.675C-52.767-2.745-52.496-2.745-52.216-2.745z"/>
		<path fill="#FFFFFF" d="M-55.689,1.109c0,0.499,0,0.984,0,1.478c-0.734,0-1.466,0-2.216,0c-0.017-0.179-0.033-0.364-0.047-0.521
			c-0.213,0.157-0.421,0.355-0.664,0.482c-0.595,0.309-1.454,0.208-1.901-0.186c-0.272-0.241-0.409-0.551-0.455-0.901
			c-0.081-0.64,0.032-1.221,0.555-1.659c0.366-0.308,0.808-0.435,1.271-0.479c0.368-0.035,0.741-0.04,1.121-0.06
			c0-0.179,0.021-0.369-0.005-0.551c-0.035-0.24-0.247-0.397-0.473-0.388c-0.245,0.012-0.445,0.198-0.478,0.453
			c-0.009,0.061-0.009,0.122-0.014,0.196c-0.604,0-1.207,0-1.808,0c0.005-0.397,0.073-0.774,0.326-1.096
			c0.297-0.377,0.702-0.566,1.156-0.669c0.725-0.165,1.434-0.117,2.124,0.158c0.72,0.289,1.076,0.813,1.081,1.594
			c0.005,0.651,0.002,1.302,0.002,1.954c0,0.06,0,0.119,0,0.193C-55.967,1.109-55.836,1.109-55.689,1.109z M-58.058,1.045
			c0.05-0.259,0.045-0.528,0.065-0.814c-0.17,0-0.303-0.014-0.434,0.002c-0.325,0.039-0.534,0.219-0.608,0.508
			c-0.095,0.359,0.067,0.677,0.374,0.732C-58.398,1.521-58.114,1.34-58.058,1.045z"/>
		<path fill="#FFFFFF" d="M-61.127,0.294c-1.125,0-2.201,0-3.293,0c0.002,0.28,0.011,0.544,0.128,0.79
			c0.118,0.248,0.318,0.36,0.61,0.342c0.264-0.018,0.448-0.146,0.538-0.399c0.029-0.083,0.049-0.169,0.074-0.26
			c0.608,0,1.219,0,1.83,0c-0.104,0.939-0.656,1.592-1.567,1.838c-0.652,0.177-1.306,0.163-1.952-0.036
			c-0.724-0.223-1.221-0.693-1.446-1.418c-0.28-0.897-0.28-1.797,0.109-2.665c0.368-0.816,1.048-1.218,1.914-1.334
			c0.458-0.061,0.911-0.023,1.351,0.111c0.944,0.29,1.448,0.964,1.605,1.911C-61.166-0.467-61.16-0.098-61.127,0.294z
			 M-64.355-0.733c0.435,0,0.852,0,1.281,0c-0.01-0.297-0.032-0.574-0.324-0.723c-0.24-0.123-0.487-0.128-0.706,0.037
			C-64.33-1.249-64.368-1-64.355-0.733z"/>
		<path fill="#FFFFFF" d="M-66.778,0.094c0.168,0.635,0.11,1.235-0.312,1.764c-0.323,0.404-0.76,0.607-1.261,0.669
			c-0.346,0.042-0.697,0.063-1.046,0.066c-1.046,0.008-2.091,0.003-3.137,0.003c-0.061,0-0.122,0-0.196,0c0-0.491,0-0.976,0-1.471
			c0.207,0,0.411,0,0.631,0c0-1.446,0-2.881,0-4.327c-0.208,0-0.412,0-0.63,0c0-0.495,0-0.979,0-1.482c0.055,0,0.108,0,0.162,0
			c1.052,0,2.103-0.011,3.154,0.006c0.38,0.008,0.764,0.056,1.137,0.13c0.776,0.155,1.201,0.67,1.341,1.429
			c0.096,0.518,0.041,1.02-0.322,1.426c-0.169,0.189-0.405,0.319-0.614,0.473c-0.052,0.038-0.114,0.061-0.196,0.104
			c0.085,0.029,0.146,0.053,0.209,0.072C-67.286-0.868-66.93-0.479-66.778,0.094z M-68.774,0.837
			c0.338-0.422,0.039-1.109-0.497-1.176c-0.104-0.014-0.209-0.023-0.314-0.025c-0.194-0.003-0.39-0.001-0.583-0.001
			c0,0.513,0,0.984,0,1.495c0.34-0.017,0.663-0.01,0.977-0.057C-69.042,1.049-68.868,0.953-68.774,0.837z M-69.333-1.794
			c0.318-0.058,0.538-0.389,0.527-0.72c-0.012-0.375-0.226-0.663-0.577-0.707c-0.254-0.033-0.516-0.008-0.792-0.008
			c0,0.438,0,0.881,0.001,1.324c0,0.044,0.006,0.087,0.013,0.168C-69.88-1.754-69.601-1.745-69.333-1.794z"/>
		<path fill="#FFFFFF" d="M-73.207,0.293c-1.128,0-2.199,0-3.311,0c0.036,0.238,0.049,0.467,0.106,0.682
			c0.084,0.312,0.307,0.461,0.617,0.453c0.304-0.007,0.501-0.16,0.594-0.467c0.019-0.062,0.035-0.126,0.054-0.194
			c0.61,0,1.216,0,1.833,0c-0.106,0.765-0.444,1.372-1.166,1.688c-0.89,0.39-1.798,0.373-2.686-0.017
			c-0.591-0.259-0.962-0.733-1.14-1.343c-0.227-0.776-0.24-1.56,0.021-2.333c0.325-0.964,1.025-1.473,2.016-1.608
			c0.39-0.054,0.776-0.029,1.159,0.059c1.012,0.233,1.598,0.88,1.79,1.881C-73.245-0.522-73.244-0.125-73.207,0.293z M-75.164-0.736
			c0.037-0.493-0.208-0.798-0.636-0.804c-0.405-0.007-0.668,0.318-0.631,0.804C-76.002-0.736-75.583-0.736-75.164-0.736z"/>
		<path fill="#FFFFFF" d="M-78.876-2.668c0.004,0.533-0.002,1.066-0.006,1.6c0,0.005-0.007,0.009-0.019,0.022
			c-0.251,0-0.515-0.034-0.767,0.007c-0.54,0.088-0.8,0.401-0.817,0.951c-0.011,0.389-0.001,0.778-0.001,1.192
			c0.18,0,0.382,0,0.593,0c0,0.506,0,0.987,0,1.48c-0.97,0-1.94,0-2.924,0c0-0.491,0-0.969,0-1.467c0.14,0,0.276,0,0.422,0
			c0-0.797,0-1.573,0-2.367c-0.139,0-0.274,0-0.419,0c0-0.506,0-0.992,0-1.487c0.688,0,1.369,0,2.073,0
			c0.02,0.266,0.039,0.535,0.062,0.841c0.031-0.063,0.049-0.096,0.061-0.128c0.171-0.447,0.491-0.713,0.966-0.76
			c0.218-0.023,0.442-0.002,0.662,0.012C-78.948-2.769-78.876-2.706-78.876-2.668z"/>
		<path fill="#FFFFFF" d="M-83.257,1.11c0,0.498,0,0.979,0,1.472c-0.718,0-1.438,0-2.182,0c0-0.17,0-0.343,0-0.496
			c-0.222,0.156-0.421,0.336-0.653,0.452c-0.419,0.213-0.875,0.243-1.333,0.146c-0.653-0.139-1.075-0.619-1.103-1.308
			c-0.032-0.811-0.023-1.624-0.032-2.435c-0.001-0.064,0-0.13,0-0.209c-0.15,0-0.282,0-0.424,0c0-0.494,0-0.976,0-1.467
			c0.78,0,1.556,0,2.357,0c0,0.062,0,0.127,0,0.19c0,0.979-0.003,1.958,0.003,2.937c0.001,0.137,0.023,0.279,0.067,0.408
			c0.065,0.194,0.235,0.295,0.442,0.287c0.204-0.006,0.349-0.104,0.421-0.296c0.025-0.067,0.055-0.138,0.056-0.208
			c0.005-0.611,0.003-1.222,0.003-1.846c-0.115,0-0.229,0-0.36,0c0-0.497,0-0.981,0-1.475c0.763,0,1.522,0,2.306,0
			c0,1.285,0,2.558,0,3.847C-83.542,1.11-83.407,1.11-83.257,1.11z"/>
		<path fill="#FFFFFF" d="M-89.311-2.75c0,0.498,0,0.984,0,1.492c-0.271,0-0.545,0-0.807,0c-0.02,0.029-0.031,0.038-0.031,0.048
			c-0.001,0.645-0.015,1.292,0.003,1.936c0.012,0.413,0.255,0.582,0.66,0.509c0.037-0.006,0.074-0.009,0.131-0.015
			c0,0.433,0.002,0.854-0.004,1.274c-0.001,0.032-0.058,0.083-0.095,0.09c-0.555,0.101-1.109,0.18-1.671,0.045
			c-0.65-0.155-0.94-0.518-0.941-1.186c-0.001-0.823,0-1.647,0-2.471c0-0.066,0-0.133,0-0.221c-0.156,0-0.303,0-0.457,0
			c0-0.505,0-0.986,0-1.492c0.193,0,0.389,0,0.603,0c0-0.378,0.006-0.732-0.003-1.088c-0.004-0.141,0.034-0.201,0.181-0.232
			c0.521-0.108,1.04-0.234,1.583-0.358c0,0.562,0,1.109,0,1.669C-89.866-2.75-89.596-2.75-89.311-2.75z"/>
		<path fill="#FFFFFF" d="M-92.742,1.106c0,0.501,0,0.985,0,1.479c-0.779,0-1.557,0-2.361,0c0-0.062,0-0.127,0-0.19
			c0-1.022,0.002-2.047-0.001-3.07c-0.002-0.446-0.359-0.678-0.728-0.479c-0.166,0.089-0.266,0.232-0.31,0.414
			c-0.008,0.038-0.018,0.077-0.018,0.115c-0.002,0.572-0.001,1.143-0.001,1.731c0.103,0,0.213,0,0.334,0c0,0.501,0,0.986,0,1.479
			c-0.896,0-1.79,0-2.693,0c0-0.487,0-0.969,0-1.469c0.135,0,0.266,0,0.409,0c0-0.796,0-1.572,0-2.366c-0.132,0-0.263,0-0.406,0
			c0-0.505,0-0.991,0-1.487c0.697,0,1.396,0,2.107,0c0.021,0.246,0.041,0.487,0.065,0.773c0.321-0.523,0.751-0.824,1.31-0.895
			c0.282-0.035,0.582-0.03,0.857,0.031c0.633,0.14,0.988,0.611,0.998,1.283c0.013,0.812,0.006,1.624,0.009,2.436
			c0,0.066,0,0.131,0,0.212C-93.021,1.106-92.889,1.106-92.742,1.106z"/>
		<path fill="#FFFFFF" d="M-98.861,0.293c-1.126,0-2.197,0-3.287,0c-0.01,0.297,0.005,0.577,0.143,0.834
			c0.12,0.227,0.324,0.311,0.571,0.3c0.241-0.01,0.429-0.114,0.529-0.341c0.044-0.1,0.071-0.208,0.107-0.319
			c0.601,0,1.206,0,1.825,0c-0.095,0.722-0.4,1.312-1.062,1.636c-0.957,0.467-1.938,0.445-2.892-0.02
			c-0.55-0.268-0.882-0.74-1.045-1.322c-0.218-0.778-0.229-1.561,0.042-2.331c0.33-0.939,1.021-1.436,1.988-1.574
			c0.429-0.062,0.855-0.033,1.272,0.079c1.005,0.271,1.547,0.956,1.711,1.956C-98.899-0.456-98.894-0.094-98.861,0.293z
			 M-100.816-0.736c0.009-0.282-0.023-0.538-0.276-0.696c-0.229-0.145-0.478-0.156-0.71-0.013c-0.258,0.158-0.291,0.423-0.293,0.709
			C-101.663-0.736-101.245-0.736-100.816-0.736z"/>
		<path fill="#FFFFFF" d="M-103.47-4.67c0,0.482,0,0.963,0,1.469c-0.098,0-0.198,0.015-0.293-0.003
			c-0.141-0.026-0.191,0.026-0.231,0.157c-0.563,1.819-1.135,3.638-1.696,5.458c-0.043,0.141-0.097,0.19-0.249,0.188
			c-0.723-0.009-1.445-0.004-2.179-0.004c-0.161-0.509-0.321-1.009-0.479-1.511c-0.437-1.382-0.873-2.764-1.305-4.149
			c-0.037-0.117-0.09-0.161-0.214-0.14c-0.085,0.015-0.176,0.003-0.28,0.003c0-0.502,0-0.979,0-1.469c1.038,0,2.075,0,3.12,0
			c0,0.483,0,0.964,0,1.46c-0.205,0-0.407,0-0.63,0c0.352,1.373,0.698,2.728,1.046,4.083c0.011,0.002,0.022,0.003,0.033,0.005
			c0.374-1.354,0.748-2.708,1.127-4.08c-0.218,0-0.414,0-0.622,0c0-0.495,0-0.977,0-1.469C-105.375-4.67-104.427-4.67-103.47-4.67z"
			/>
	</g>
</g>
</svg>
